<svg width="98" height="33" viewBox="0 0 98 33" fill="none" xmlns="http://www.w3.org/2000/svg">
<rect width="20.2464" height="5.81884" rx="2.90942" fill="white"/>
<rect y="27.1812" width="20.2464" height="5.81884" rx="2.90942" fill="white"/>
<rect x="4.1145" y="6.37695" width="22.8656" height="5.81884" rx="2.90942" transform="rotate(45 4.1145 6.37695)" fill="white"/>
<path d="M44.6 24.28C44.02 24.28 43.44 24.2367 42.86 24.15C42.28 24.0633 41.7433 23.9533 41.25 23.82C40.7567 23.68 40.3467 23.5333 40.02 23.38L40.28 21.36C40.64 21.5333 41.0733 21.7133 41.58 21.9C42.0933 22.0867 42.6467 22.2433 43.24 22.37C43.8333 22.4967 44.4333 22.56 45.04 22.56C45.94 22.56 46.6533 22.3967 47.18 22.07C47.7133 21.7367 47.98 21.22 47.98 20.52C47.98 19.9933 47.8467 19.5633 47.58 19.23C47.3133 18.89 46.91 18.6 46.37 18.36C45.8367 18.12 45.1667 17.88 44.36 17.64C43.5933 17.4133 42.8867 17.1467 42.24 16.84C41.5933 16.5267 41.0733 16.11 40.68 15.59C40.2933 15.0633 40.1 14.3667 40.1 13.5C40.1 12.76 40.29 12.1067 40.67 11.54C41.0567 10.9667 41.62 10.52 42.36 10.2C43.1067 9.88 44.02 9.72 45.1 9.72C46.02 9.72 46.8633 9.82 47.63 10.02C48.4033 10.22 49.04 10.44 49.54 10.68L49.34 12.7C48.58 12.2467 47.8533 11.9233 47.16 11.73C46.4733 11.5367 45.76 11.44 45.02 11.44C44.2 11.44 43.52 11.5933 42.98 11.9C42.4467 12.2067 42.18 12.7067 42.18 13.4C42.18 13.8667 42.3 14.25 42.54 14.55C42.78 14.8433 43.1367 15.0967 43.61 15.31C44.0833 15.5167 44.6733 15.7267 45.38 15.94C46.3533 16.2333 47.19 16.57 47.89 16.95C48.59 17.3233 49.1267 17.7867 49.5 18.34C49.8733 18.8867 50.06 19.5667 50.06 20.38C50.06 20.98 49.9467 21.52 49.72 22C49.4933 22.48 49.1533 22.89 48.7 23.23C48.2467 23.57 47.6767 23.83 46.99 24.01C46.31 24.19 45.5133 24.28 44.6 24.28ZM52.3272 28.84L54.5872 23.56L50.5072 14.2H52.5072L55.5672 21.48L58.3272 14.2H60.3272L54.3272 28.84H52.3272ZM61.6848 24V14.2H63.0848L63.4448 16.08L62.7448 15.78C63.4048 15.0467 64.0482 14.5667 64.6748 14.34C65.3082 14.1133 65.9248 14 66.5248 14C67.9582 14 68.9815 14.4133 69.5948 15.24C70.2148 16.0667 70.5248 17.1867 70.5248 18.6V24H68.7248V18.6C68.7248 17.56 68.5315 16.8 68.1448 16.32C67.7582 15.84 67.0982 15.6 66.1648 15.6C65.5048 15.6 64.8982 15.7467 64.3448 16.04C63.7982 16.3267 63.4382 16.7867 63.2648 17.42L63.4848 16.32V24H61.6848ZM76.0805 24.2C75.4605 24.2 74.9638 24.0867 74.5905 23.86C74.2171 23.6333 73.9438 23.3433 73.7705 22.99C73.6038 22.63 73.5205 22.2533 73.5205 21.86V15.6H71.8405L72.0005 14.2H73.5205V11.78L75.3205 11.6V14.2H77.9005V15.6H75.3205V20.76C75.3205 21.3867 75.3571 21.84 75.4305 22.12C75.5038 22.4 75.6838 22.5767 75.9705 22.65C76.2638 22.7233 76.7338 22.76 77.3805 22.76H77.8405L77.7005 24.2H76.0805ZM84.0606 24.2C82.9073 24.2 81.9373 23.9633 81.1506 23.49C80.364 23.0167 79.7673 22.39 79.3606 21.61C78.9606 20.8233 78.7606 19.96 78.7606 19.02C78.7606 18.1067 78.9473 17.27 79.3206 16.51C79.7006 15.75 80.2473 15.1433 80.9606 14.69C81.6806 14.23 82.5473 14 83.5606 14C84.374 14 85.0973 14.1633 85.7306 14.49C86.3706 14.81 86.8706 15.28 87.2306 15.9C87.5973 16.5133 87.7806 17.26 87.7806 18.14C87.7806 18.28 87.774 18.4333 87.7606 18.6C87.754 18.76 87.734 18.9267 87.7006 19.1H80.6006C80.6873 20.0067 80.904 20.7133 81.2506 21.22C81.5973 21.7267 82.034 22.0833 82.5606 22.29C83.0873 22.4967 83.6606 22.6 84.2806 22.6C84.734 22.6 85.2073 22.5533 85.7006 22.46C86.194 22.3667 86.6606 22.22 87.1006 22.02L87.3406 23.44C86.9606 23.6067 86.4973 23.7767 85.9506 23.95C85.404 24.1167 84.774 24.2 84.0606 24.2ZM80.7606 17.86H85.9206C85.9206 17.4 85.834 17 85.6606 16.66C85.4873 16.32 85.224 16.06 84.8706 15.88C84.5173 15.6933 84.0673 15.6 83.5206 15.6C82.7206 15.6 82.104 15.8 81.6706 16.2C81.244 16.5933 80.9406 17.1467 80.7606 17.86ZM88.4973 24L91.9173 19.12L88.5773 14.2H90.5973L93.0573 18.08L95.3173 14.2H97.4173L94.1973 18.96L97.5373 24H95.5173L93.0373 20.14L90.5173 24H88.4973Z" fill="white"/>
</svg>
